<svg width="24" height="24" viewBox="0 0 24 24" fill="none" xmlns="http://www.w3.org/2000/svg">
<g clip-path="url(#clip0)">
<path d="M13.8611 8.26797C13.8956 7.0136 13.6642 5.26685 14.0546 4.6706C14.7675 3.57897 17.6156 3.86285 17.6156 3.86285C17.6156 3.86285 17.6156 1.38335 17.6156 -0.000777236C13.1224 -0.000777236 11.6516 -0.188652 10.1096 1.37735C8.73786 2.77047 8.69549 5.50647 8.58261 8.26797H6.38062V12.045H8.60736C8.60661 15.984 8.60849 20.301 8.60736 24.0015C10.2806 24.0015 13.8401 24.0015 13.8401 24.0015V11.9977C13.8401 11.9977 15.78 11.9977 16.8559 11.9977C17.0906 10.7283 17.3194 9.73422 17.6389 8.2676L13.8611 8.26797Z" fill="#AA8453"/>
</g>
<defs>
<clipPath id="clip0">
<rect width="24" height="24" fill="white"/>
</clipPath>
</defs>
</svg>
