<svg width="36" height="20" viewBox="0 0 36 20" fill="none" xmlns="http://www.w3.org/2000/svg">
<path fill-rule="evenodd" clip-rule="evenodd" d="M17.268 19.9163H19.3777C19.3777 19.9163 20.0149 19.8468 20.3403 19.4984C20.6397 19.1786 20.6302 18.5779 20.6302 18.5779C20.6302 18.5779 20.589 15.7661 21.9028 15.352C23.1979 14.9442 24.861 18.0696 26.6238 19.2714C27.9567 20.1809 28.9696 19.9815 28.9696 19.9815L33.683 19.9163C33.683 19.9163 36.1486 19.7654 34.9795 17.8398C34.8837 17.6822 34.2986 16.4153 31.4751 13.8119C28.5197 11.0872 28.9155 11.5279 32.4755 6.81471C34.6436 3.94434 35.5104 2.19194 35.2397 1.44139C34.9814 0.726539 33.3868 0.915486 33.3868 0.915486L28.0799 0.948325C28.0799 0.948325 27.6865 0.89502 27.3947 1.06826C27.1096 1.23817 26.9261 1.63415 26.9261 1.63415C26.9261 1.63415 26.0862 3.85534 24.9659 5.74433C22.6028 9.73029 21.6579 9.94065 21.2717 9.69317C20.3733 9.11633 20.5976 7.37584 20.5976 6.13936C20.5976 2.27666 21.1874 0.666096 19.4491 0.249177C18.8722 0.110679 18.4477 0.0192998 16.9724 0.00454579C15.0788 -0.0149676 13.4761 0.0102564 12.5686 0.451925C11.9649 0.745577 11.4992 1.39999 11.7828 1.43759C12.1335 1.48423 12.928 1.65033 13.3491 2.22003C13.8929 2.95487 13.8738 4.60542 13.8738 4.60542C13.8738 4.60542 14.1862 9.1525 13.144 9.71744C12.4287 10.1049 11.4474 9.31385 9.34062 5.69769C8.26111 3.84535 7.44609 1.79787 7.44609 1.79787C7.44609 1.79787 7.28893 1.41522 7.00864 1.21057C6.66844 0.962603 6.19313 0.883599 6.19313 0.883599L1.15017 0.916437C1.15017 0.916437 0.393121 0.937379 0.115218 1.26435C-0.132019 1.55514 0.0955733 2.15673 0.0955733 2.15673C0.0955733 2.15673 4.0437 11.3318 8.5141 15.9555C12.6132 20.1947 17.268 19.9163 17.268 19.9163Z" fill="#AA8453"/>
</svg>
