<svg width="30" height="30" viewBox="0 0 30 30" fill="none" xmlns="http://www.w3.org/2000/svg">
<path d="M10 12C11.1046 12 12 11.1046 12 10C12 8.89543 11.1046 8 10 8C8.89543 8 8 8.89543 8 10C8 11.1046 8.89543 12 10 12Z" fill="#AA8453"/>
<path d="M19.6 12C20.7045 12 21.6 11.1046 21.6 10C21.6 8.89543 20.7045 8 19.6 8C18.4954 8 17.6 8.89543 17.6 10C17.6 11.1046 18.4954 12 19.6 12Z" fill="#AA8453"/>
<path d="M10 21C11.1046 21 12 20.1046 12 19C12 17.8954 11.1046 17 10 17C8.89543 17 8 17.8954 8 19C8 20.1046 8.89543 21 10 21Z" fill="#AA8453"/>
<path d="M19.6 21C20.7045 21 21.6 20.1046 21.6 19C21.6 17.8954 20.7045 17 19.6 17C18.4954 17 17.6 17.8954 17.6 19C17.6 20.1046 18.4954 21 19.6 21Z" fill="#AA8453"/>
</svg>
