<svg width="16" height="14" viewBox="0 0 16 14" fill="none" xmlns="http://www.w3.org/2000/svg">
<path d="M14.1043 1.77949C13.7441 1.41913 13.3164 1.13327 12.8457 0.938239C12.375 0.743206 11.8705 0.642822 11.361 0.642822C10.8515 0.642822 10.347 0.743206 9.87634 0.938239C9.40564 1.13327 8.97799 1.41913 8.6178 1.77949L7.87028 2.527L7.12277 1.77949C6.39522 1.05193 5.40844 0.643199 4.37953 0.643199C3.35061 0.643199 2.36384 1.05193 1.63629 1.77949C0.908735 2.50704 0.5 3.49381 0.5 4.52273C0.5 5.55164 0.908735 6.53842 1.63629 7.26597L2.3838 8.01348L7.87028 13.5L13.3568 8.01348L14.1043 7.26597C14.4646 6.90578 14.7505 6.47813 14.9455 6.00743C15.1406 5.53674 15.2409 5.03223 15.2409 4.52273C15.2409 4.01323 15.1406 3.50872 14.9455 3.03802C14.7505 2.56733 14.4646 2.13967 14.1043 1.77949V1.77949Z" stroke="currentColor" stroke-linecap="round" stroke-linejoin="round"/>
</svg>
