<svg width="27" height="9" viewBox="0 0 27 9" fill="none" xmlns="http://www.w3.org/2000/svg">
<path d="M7.033 9H5.434L2.873 1.109C2.86433 2.14033 2.75167 3.41433 2.535 4.931L1.963 9H0.806L2.067 0.0429999H3.679L6.253 7.947C6.253 7.35767 6.266 6.842 6.292 6.4C6.32667 5.94933 6.37867 5.44667 6.448 4.892L7.137 0.0429999H8.294L7.033 9ZM15.6619 0.0429999L15.3889 1.031H11.9439L11.5279 3.956H14.5179L14.3879 4.944H11.3979L10.9689 8.012H14.6479L14.5049 9H9.60385L10.8649 0.0429999H15.6619ZM26.7937 0.0429999L23.7257 9H22.1527L21.5807 1.499L18.8767 9H17.3427L16.7967 0.0429999H17.9667L18.2787 7.921L21.0997 0.0429999H22.4257L23.0627 7.921L25.6627 0.0429999H26.7937Z" fill="black"/>
</svg>
