<svg width="20" height="20" viewBox="0 0 20 20" fill="none" xmlns="http://www.w3.org/2000/svg">
<path d="M0 10C0 4.47715 4.47715 0 10 0C15.5228 0 20 4.47715 20 10C20 15.5228 15.5228 20 10 20C4.47715 20 0 15.5228 0 10ZM19.0909 10C19.0909 4.97923 15.0208 0.909091 10 0.909091C4.97923 0.909091 0.909091 4.97923 0.909091 10C0.909091 15.0208 4.97923 19.0909 10 19.0909C15.0208 19.0909 19.0909 15.0208 19.0909 10ZM9.54545 1.81818V5L10 5.90909L10.4545 5V1.81818H9.54545ZM10 12.2727L9.54545 13.1818V18.1818H10.4545V13.1818L10 12.2727ZM10.4545 10.9091C10.4545 10.9091 11.858 12.268 12.0358 13.1571C12.3125 14.5407 14.4632 15.8572 14.4632 15.8572L14.0383 14.7812H15.2299C15.2299 14.7812 13.2793 13.9031 13.0033 12.7459C12.7273 11.5887 11.3636 10.4545 11.3636 10.4545L10.4545 10.9091ZM9.72004 10.9091C9.72004 10.9091 8.31661 12.268 8.13878 13.1571C7.86206 14.5407 5.71136 15.8572 5.71136 15.8572L6.13628 14.7812H4.94465C4.94465 14.7812 6.89533 13.9031 7.17132 12.7459C7.44731 11.5887 8.81095 10.4545 8.81095 10.4545L9.72004 10.9091ZM14.5455 9.54545L13.1818 10.4545H18.1818V9.54545H14.5455ZM1.81818 9.54545V10.4545H6.81818L5.45455 9.54545H1.81818ZM10 10.4545C10.251 10.4545 10.4545 10.251 10.4545 10C10.4545 9.74896 10.251 9.54545 10 9.54545C9.74896 9.54545 9.54545 9.74896 9.54545 10C9.54545 10.251 9.74896 10.4545 10 10.4545ZM14.7547 5.24103C12.1172 2.60351 10.2601 7.81751 10.2601 7.81751L10.5815 9.42457C10.5815 9.42457 12.5034 4.27541 14.1171 5.88904C15.7307 7.50266 10.5815 9.42457 10.5815 9.42457L12.1886 9.74598C12.1886 9.74598 17.3922 7.87856 14.7547 5.24103ZM5.24103 5.2453C2.60351 7.88282 7.81751 9.73989 7.81751 9.73989L9.42457 9.41848C9.42457 9.41848 4.27541 7.49656 5.88904 5.88294C7.50266 4.26932 9.42457 9.41848 9.42457 9.41848L9.74598 7.81141C9.74598 7.81141 7.87856 2.60777 5.24103 5.2453Z" fill="black"/>
</svg>
