<svg width="14" height="16" viewBox="0 0 14 16" fill="none" xmlns="http://www.w3.org/2000/svg">
<path d="M12.38 0.94L1.2 14.92L2 15.48L13.18 1.5L12.38 0.94ZM3.36 7.98C2.57333 7.98 1.94 7.73333 1.46 7.24C0.98 6.74667 0.74 6.09333 0.74 5.28C0.74 4.70667 0.86 4.12667 1.1 3.54C1.34 2.95333 1.71333 2.46667 2.22 2.08C2.74 1.68 3.38 1.48 4.14 1.48C4.94 1.48 5.57333 1.72 6.04 2.2C6.52 2.68 6.76 3.32667 6.76 4.14C6.76 4.72667 6.64 5.31333 6.4 5.9C6.17333 6.48667 5.80667 6.98 5.3 7.38C4.79333 7.78 4.14667 7.98 3.36 7.98ZM3.36 7.14C3.94667 7.14 4.41333 6.97333 4.76 6.64C5.10667 6.29333 5.34667 5.88667 5.48 5.42C5.62667 4.95333 5.7 4.52 5.7 4.12C5.7 3.57333 5.57333 3.14 5.32 2.82C5.08 2.48667 4.69333 2.32 4.16 2.32C3.57333 2.32 3.1 2.48667 2.74 2.82C2.39333 3.15333 2.14667 3.55333 2 4.02C1.86667 4.47333 1.8 4.90667 1.8 5.32C1.8 5.86667 1.92667 6.30667 2.18 6.64C2.43333 6.97333 2.82667 7.14 3.36 7.14ZM10.06 15.22C9.27333 15.22 8.64 14.9733 8.16 14.48C7.68 13.9867 7.44 13.3333 7.44 12.52C7.44 11.9333 7.56 11.3467 7.8 10.76C8.04 10.1733 8.41333 9.68667 8.92 9.3C9.44 8.9 10.0867 8.7 10.86 8.7C11.6467 8.7 12.28 8.94667 12.76 9.44C13.24 9.92 13.48 10.5667 13.48 11.38C13.48 11.9533 13.36 12.54 13.12 13.14C12.8933 13.7267 12.52 14.22 12 14.62C11.4933 15.02 10.8467 15.22 10.06 15.22ZM10.06 14.36C10.6467 14.36 11.1133 14.1933 11.46 13.86C11.82 13.5133 12.0667 13.1133 12.2 12.66C12.3467 12.1933 12.42 11.76 12.42 11.36C12.42 10.8133 12.2933 10.38 12.04 10.06C11.8 9.72667 11.4067 9.56 10.86 9.56C10.2733 9.56 9.8 9.72667 9.44 10.06C9.09333 10.3933 8.84667 10.7933 8.7 11.26C8.56667 11.7133 8.5 12.1467 8.5 12.56C8.5 13.1067 8.62667 13.5467 8.88 13.88C9.13333 14.2 9.52667 14.36 10.06 14.36Z" fill="black"/>
</svg>
