<svg width="30" height="30" viewBox="0 0 30 30" fill="none" xmlns="http://www.w3.org/2000/svg">
<path d="M9.1004 19.242C6.29987 16.4415 6.29987 11.9009 9.1004 9.1004C11.9009 6.29987 16.4415 6.29987 19.242 9.1004C21.8855 11.7439 22.0446 15.9602 19.6584 18.7889L22.8088 21.9393C23.3885 22.519 22.519 23.3885 21.9393 22.8088L18.7889 19.6584C15.9602 22.0446 11.7439 21.8855 9.1004 19.242ZM18.3725 9.96994C16.0522 7.64963 12.2902 7.64963 9.96994 9.96994C7.64963 12.2902 7.64963 16.0522 9.96994 18.3725C12.2902 20.6928 16.0522 20.6928 18.3725 18.3725C20.6928 16.0522 20.6928 12.2902 18.3725 9.96994Z" fill="#AA8453"/>
</svg>
