<svg width="36" height="20" fill="none" xmlns="http://www.w3.org/2000/svg"><path fill-rule="evenodd" clip-rule="evenodd" d="M17.268 19.916h2.11s.637-.07.962-.418c.3-.32.29-.92.29-.92s-.041-2.812 1.273-3.226c1.295-.408 2.958 2.718 4.72 3.92 1.334.909 2.347.71 2.347.71l4.713-.066s2.466-.15 1.297-2.076c-.096-.158-.681-1.425-3.505-4.028-2.955-2.725-2.56-2.284 1-6.997 2.169-2.87 3.035-4.623 2.765-5.374-.259-.714-1.853-.526-1.853-.526L28.08.948s-.393-.053-.685.12c-.285.17-.469.566-.469.566s-.84 2.221-1.96 4.11c-2.363 3.986-3.308 4.197-3.694 3.95-.899-.578-.674-2.318-.674-3.555 0-3.862.59-5.473-1.149-5.89-.577-.138-1.001-.23-2.477-.244-1.893-.02-3.496.005-4.403.447-.604.294-1.07.948-.786.986.35.046 1.145.212 1.566.782.544.735.525 2.385.525 2.385s.312 4.547-.73 5.112c-.715.388-1.697-.403-3.803-4.02-1.08-1.852-1.895-3.9-1.895-3.9s-.157-.382-.437-.586c-.34-.248-.816-.327-.816-.327L1.15.916S.393.937.115 1.264c-.247.291-.02.893-.02.893s3.949 9.175 8.42 13.799c4.098 4.239 8.753 3.96 8.753 3.96z" fill="#AA8453"/></svg>