<svg width="27" height="9" fill="none" xmlns="http://www.w3.org/2000/svg"><path d="M7.033 9H5.434L2.873 1.109c-.009 1.031-.121 2.305-.338 3.822L1.963 9H.806L2.067.043h1.612l2.574 7.904c0-.59.013-1.105.039-1.547.035-.45.087-.953.156-1.508L7.137.043h1.157L7.033 9zM15.662.043l-.273.988h-3.445l-.416 2.925h2.99l-.13.988h-2.99l-.43 3.068h3.68L14.505 9H9.604l1.26-8.957h4.798zm11.132 0L23.726 9h-1.573l-.572-7.501L18.877 9h-1.534L16.797.043h1.17l.312 7.878 2.82-7.878h1.327l.637 7.878 2.6-7.878h1.13z" fill="#000"/></svg>