<svg width="20" height="20" fill="none" xmlns="http://www.w3.org/2000/svg"><path d="M0 10C0 4.477 4.477 0 10 0s10 4.477 10 10-4.477 10-10 10S0 15.523 0 10zm19.09 0A9.09 9.09 0 10.91 10a9.09 9.09 0 0018.18 0zM9.546 1.818V5l.455.91.454-.91V1.818h-.909zM10 12.273l-.455.909v5h.91v-5l-.455-.91zm.454-1.364s1.404 1.359 1.582 2.248c.277 1.384 2.427 2.7 2.427 2.7l-.425-1.076h1.192s-1.95-.878-2.227-2.035c-.276-1.157-1.64-2.292-1.64-2.292l-.909.455zm-.734 0s-1.403 1.359-1.581 2.248c-.277 1.384-2.428 2.7-2.428 2.7l.425-1.076H4.945s1.95-.878 2.226-2.035 1.64-2.292 1.64-2.292l.909.455zm4.825-1.364l-1.363.91h5v-.91h-3.636zm-12.727 0v.91h5l-1.363-.91H1.818zm8.182.91a.455.455 0 100-.91.455.455 0 000 .91zm4.755-5.214c-2.638-2.637-4.495 2.577-4.495 2.577l.322 1.607s1.921-5.15 3.535-3.536c1.614 1.614-3.536 3.536-3.536 3.536l1.608.321s5.203-1.867 2.566-4.505zm-9.514.004C2.604 7.883 7.818 9.74 7.818 9.74l1.607-.322s-5.15-1.921-3.536-3.535c1.614-1.614 3.536 3.535 3.536 3.535l.321-1.607S7.879 2.608 5.241 5.245z" fill="#000"/></svg>