<svg width="14" height="16" fill="none" xmlns="http://www.w3.org/2000/svg"><path d="M12.38.94L1.2 14.92l.8.56L13.18 1.5l-.8-.56zM3.36 7.98c-.787 0-1.42-.247-1.9-.74S.74 6.093.74 5.28c0-.573.12-1.153.36-1.74a3.449 3.449 0 011.12-1.46c.52-.4 1.16-.6 1.92-.6.8 0 1.433.24 1.9.72.48.48.72 1.127.72 1.94 0 .587-.12 1.173-.36 1.76a3.435 3.435 0 01-1.1 1.48c-.507.4-1.153.6-1.94.6zm0-.84c.587 0 1.053-.167 1.4-.5a2.78 2.78 0 00.72-1.22c.147-.467.22-.9.22-1.3 0-.547-.127-.98-.38-1.3-.24-.333-.627-.5-1.16-.5-.587 0-1.06.167-1.42.5A2.803 2.803 0 002 4.02c-.133.453-.2.887-.2 1.3 0 .547.127.987.38 1.32.253.333.647.5 1.18.5zm6.7 8.08c-.787 0-1.42-.247-1.9-.74s-.72-1.147-.72-1.96c0-.587.12-1.173.36-1.76A3.448 3.448 0 018.92 9.3c.52-.4 1.167-.6 1.94-.6.787 0 1.42.247 1.9.74.48.48.72 1.127.72 1.94 0 .573-.12 1.16-.36 1.76-.227.587-.6 1.08-1.12 1.48-.507.4-1.153.6-1.94.6zm0-.86c.587 0 1.053-.167 1.4-.5.36-.347.607-.747.74-1.2.147-.467.22-.9.22-1.3 0-.547-.127-.98-.38-1.3-.24-.333-.633-.5-1.18-.5-.587 0-1.06.167-1.42.5a2.803 2.803 0 00-.74 1.2c-.133.453-.2.887-.2 1.3 0 .547.127.987.38 1.32.253.32.647.48 1.18.48z" fill="#000"/></svg>